<svg width="88" height="88" viewBox="0 0 88 88" fill="none" xmlns="http://www.w3.org/2000/svg">
<path d="M44 87.0833C67.7943 87.0833 87.0834 67.7942 87.0834 43.9999C87.0834 20.2057 67.7943 0.916626 44 0.916626C20.2058 0.916626 0.916687 20.2057 0.916687 43.9999C0.916687 67.7942 20.2058 87.0833 44 87.0833Z" fill="#FC1370"/>
<path d="M60.0583 27.55V18.15H50.5714L49.6188 19.0356L45.1139 27.4721L43.698 28.3334H27.55V41.2584H36.4588L37.2112 42.3033L27.55 60.667V70.2417H37.1666L38.1195 69.2402L42.6244 60.6658L44.0407 59.6667H60.0583V46.7417H51.2795L50.4934 45.77L60.0885 27.5312" fill="white"/>
<path opacity="0.1" d="M13.5354 74.4646C21.3319 82.2612 32.1028 87.0834 44 87.0834C67.7942 87.0834 87.0834 67.7942 87.0834 44C87.0834 32.1028 82.2612 21.3319 74.4646 13.5354L13.5354 74.4646Z" fill="#231F20"/>
</svg>
