<svg width="126" height="33" viewBox="0 0 126 33" fill="none" xmlns="http://www.w3.org/2000/svg">
<path d="M22.074 16.7119C23.754 17.2439 25.07 18.1399 26.022 19.3999C26.974 20.6319 27.45 22.1579 27.45 23.9779C27.45 26.5539 26.442 28.5419 24.426 29.9419C22.438 31.3139 19.526 31.9999 15.69 31.9999H0.486023V2.59994H14.85C18.434 2.59994 21.178 3.28594 23.082 4.65794C25.014 6.02994 25.98 7.89194 25.98 10.2439C25.98 11.6719 25.63 12.9459 24.93 14.0659C24.258 15.1859 23.306 16.0679 22.074 16.7119ZM7.24802 7.72394V14.6539H14.01C15.69 14.6539 16.964 14.3599 17.832 13.7719C18.7 13.1839 19.134 12.3159 19.134 11.1679C19.134 10.0199 18.7 9.16594 17.832 8.60594C16.964 8.01794 15.69 7.72394 14.01 7.72394H7.24802ZM15.186 26.8759C16.978 26.8759 18.322 26.5819 19.218 25.9939C20.142 25.4059 20.604 24.4959 20.604 23.2639C20.604 20.8279 18.798 19.6099 15.186 19.6099H7.24802V26.8759H15.186Z" fill="#333333"/>
<path d="M42.8913 32.3359C40.5113 32.3359 38.3693 31.8459 36.4653 30.8659C34.5893 29.8579 33.1193 28.4719 32.0553 26.7079C30.9913 24.9439 30.4593 22.9419 30.4593 20.7019C30.4593 18.4619 30.9913 16.4599 32.0553 14.6959C33.1193 12.9319 34.5893 11.5599 36.4653 10.5799C38.3693 9.57194 40.5113 9.06794 42.8913 9.06794C45.2713 9.06794 47.3993 9.57194 49.2753 10.5799C51.1513 11.5599 52.6213 12.9319 53.6853 14.6959C54.7493 16.4599 55.2813 18.4619 55.2813 20.7019C55.2813 22.9419 54.7493 24.9439 53.6853 26.7079C52.6213 28.4719 51.1513 29.8579 49.2753 30.8659C47.3993 31.8459 45.2713 32.3359 42.8913 32.3359ZM42.8913 26.9599C44.5713 26.9599 45.9433 26.3999 47.0073 25.2799C48.0993 24.1319 48.6453 22.6059 48.6453 20.7019C48.6453 18.7979 48.0993 17.2859 47.0073 16.1659C45.9433 15.0179 44.5713 14.4439 42.8913 14.4439C41.2113 14.4439 39.8253 15.0179 38.7333 16.1659C37.6413 17.2859 37.0953 18.7979 37.0953 20.7019C37.0953 22.6059 37.6413 24.1319 38.7333 25.2799C39.8253 26.3999 41.2113 26.9599 42.8913 26.9599Z" fill="#333333"/>
<path d="M68.4056 9.06794C71.9056 9.06794 74.5936 9.90794 76.4696 11.5879C78.3456 13.2399 79.2836 15.7459 79.2836 19.1059V31.9999H73.1516V29.1859C71.9196 31.2859 69.6236 32.3359 66.2636 32.3359C64.5276 32.3359 63.0156 32.0419 61.7276 31.4539C60.4676 30.8659 59.5016 30.0539 58.8296 29.0179C58.1576 27.9819 57.8216 26.8059 57.8216 25.4899C57.8216 23.3899 58.6056 21.7379 60.1736 20.5339C61.7696 19.3299 64.2196 18.7279 67.5236 18.7279H72.7316C72.7316 17.2999 72.2976 16.2079 71.4296 15.4519C70.5616 14.6679 69.2596 14.2759 67.5236 14.2759C66.3196 14.2759 65.1296 14.4719 63.9536 14.8639C62.8056 15.2279 61.8256 15.7319 61.0136 16.3759L58.6616 11.7979C59.8936 10.9299 61.3636 10.2579 63.0716 9.78194C64.8076 9.30594 66.5856 9.06794 68.4056 9.06794ZM67.9016 27.9259C69.0216 27.9259 70.0156 27.6739 70.8836 27.1699C71.7516 26.6379 72.3676 25.8679 72.7316 24.8599V22.5499H68.2376C65.5496 22.5499 64.2056 23.4319 64.2056 25.1959C64.2056 26.0359 64.5276 26.7079 65.1716 27.2119C65.8436 27.6879 66.7536 27.9259 67.9016 27.9259Z" fill="#333333"/>
<path d="M91.4715 12.3859C92.2555 11.2939 93.3055 10.4679 94.6215 9.90794C95.9655 9.34794 97.5055 9.06794 99.2415 9.06794V15.1159C98.5135 15.0599 98.0235 15.0319 97.7715 15.0319C95.8955 15.0319 94.4255 15.5639 93.3615 16.6279C92.2975 17.6639 91.7655 19.2319 91.7655 21.3319V31.9999H85.2135V9.40394H91.4715V12.3859Z" fill="#333333"/>
<path d="M125.948 0.835938V31.9999H119.69V29.3959C118.066 31.3559 115.714 32.3359 112.634 32.3359C110.506 32.3359 108.574 31.8599 106.838 30.9079C105.13 29.9559 103.786 28.5979 102.806 26.8339C101.826 25.0699 101.336 23.0259 101.336 20.7019C101.336 18.3779 101.826 16.3339 102.806 14.5699C103.786 12.8059 105.13 11.4479 106.838 10.4959C108.574 9.54394 110.506 9.06794 112.634 9.06794C115.518 9.06794 117.772 9.97794 119.396 11.7979V0.835938H125.948ZM113.768 26.9599C115.42 26.9599 116.792 26.3999 117.884 25.2799C118.976 24.1319 119.522 22.6059 119.522 20.7019C119.522 18.7979 118.976 17.2859 117.884 16.1659C116.792 15.0179 115.42 14.4439 113.768 14.4439C112.088 14.4439 110.702 15.0179 109.61 16.1659C108.518 17.2859 107.972 18.7979 107.972 20.7019C107.972 22.6059 108.518 24.1319 109.61 25.2799C110.702 26.3999 112.088 26.9599 113.768 26.9599Z" fill="#333333"/>
</svg>
