<svg width="59" height="35" viewBox="0 0 59 35" fill="none" xmlns="http://www.w3.org/2000/svg">
<path d="M29.716 20.492C29.716 21.4675 29.8149 22.4087 30.0133 23.314H29.35H17.4173L29.4361 9.34211L29.678 9.06091V8.68998V2.59998V1.59998H28.678H2.76399H1.76399V2.59998V10.286V11.286H2.76399H13.6047L1.58589 25.2578L1.34399 25.539V25.91V32V33H2.34399H29.35H30.35V32V24.5388C30.6541 25.4527 31.0679 26.3263 31.5922 27.1575C32.8472 29.1471 34.6173 30.6947 36.8676 31.8048L36.8675 31.8048L36.8772 31.8095C39.1356 32.8935 41.7243 33.42 44.618 33.42C49.2522 33.42 52.9085 32.1328 55.3959 29.3967L56.0346 28.6941L55.3661 28.0199L51.1003 23.718H56.252H57.1914L57.25 22.7804C57.3324 21.463 57.378 20.6729 57.378 20.492C57.378 17.8442 56.7667 15.5092 55.501 13.5313C54.2797 11.579 52.6101 10.0951 50.512 9.09109C48.4597 8.09561 46.1952 7.60598 43.736 7.60598C41.1317 7.60598 38.7482 8.13977 36.6057 9.22606L36.6006 9.22869C34.4857 10.3164 32.7959 11.8515 31.5502 13.8265L31.548 13.83C30.3201 15.7946 29.716 18.0254 29.716 20.492ZM42.2497 23.718H47.8983C47.6127 23.8746 47.3445 23.9967 47.0933 24.0871L47.0932 24.087L47.0809 24.0916C46.5566 24.2883 45.8449 24.406 44.912 24.406C43.8655 24.406 43.0722 24.2077 42.4796 23.8722C42.3997 23.8234 42.3232 23.772 42.2497 23.718ZM45.5998 16.6686L45.6093 16.6769L45.6191 16.6849C45.7763 16.8148 45.918 16.9652 46.0424 17.14H41.5724C41.7035 16.9448 41.854 16.7808 42.0209 16.6429C42.4556 16.2838 43.0302 16.074 43.82 16.074C44.5968 16.074 45.1646 16.2901 45.5998 16.6686Z" stroke="#333333" stroke-width="2"/>
</svg>
